<svg width="17" height="17" viewBox="0 0 17 17" fill="none" xmlns="http://www.w3.org/2000/svg">
<path d="M13.0112 13.2925C13.3558 12.9479 13.9007 12.9266 14.2704 13.2281L14.3421 13.2925L16.2245 15.1748L16.2888 15.2465C16.5903 15.6162 16.5691 16.1611 16.2245 16.5057C15.8799 16.8503 15.3349 16.8716 14.9653 16.5701L14.8936 16.5057L13.0112 14.6234L12.9469 14.5517C12.6454 14.182 12.6666 13.637 13.0112 13.2925Z" fill="#0075A0"/>
<path d="M7.08833 0.78125C10.727 0.78125 13.6767 3.73094 13.6767 7.36958C13.6767 11.0082 10.727 13.9579 7.08833 13.9579C3.44969 13.9579 0.5 11.0082 0.5 7.36958C0.5 3.73094 3.44969 0.78125 7.08833 0.78125Z" fill="#0075A0"/>
</svg>
